<svg xmlns="http://www.w3.org/2000/svg" viewBox="0 0 24 24" fill="black">
  <path d="M12 0C8.74 0 8.333.015 7.053.072 5.775.132 4.905.333 4.117.6c-.79.263-1.473.557-2.126 1.21-.663.653-.958 1.335-1.22 2.127-.27.79-.47 1.66-.53 2.938C.05 8.333.035 8.74 0 12c0 3.26.015 3.667.072 4.947.06 1.277.261 2.148.53 2.938.263.79.557 1.473 1.21 2.126.663.663 1.335.957 2.127 1.22.79.263 1.66.463 2.937.522C8.333 23.965 8.74 23.98 12 23.98c3.26 0 3.667-.015 4.947-.072 1.277-.06 2.148-.261 2.938-.53.79-.263 1.473-.557 2.126-1.21.663-.663.957-1.335 1.22-2.127.263-.79.463-1.66.522-2.937.048-1.28.063-1.687.063-4.947 0-3.26-.015-3.667-.072-4.947-.06-1.277-.261-2.148-.53-2.938-.263-.79-.557-1.473-1.21-2.126C21.298 1.465 20.626 1.07 19.838.806c-.79-.263-1.66-.463-2.937-.522C15.667.05 15.26.035 12 0zm0 2.16c3.203 0 3.585.009 4.849.070 1.171.054 1.805.244 2.227.408.56.217.96.477 1.382.896.419.42.679.822.896 1.381.164.422.354 1.056.408 2.227.061 1.264.07 1.646.07 4.849 0 3.203-.009 3.585-.07 4.849-.054 1.171-.244 1.805-.408 2.227-.217.56-.477.96-.896 1.382-.42.419-.822.679-1.381.896-.422.164-1.056.354-2.227.408-1.264.061-1.646.07-4.849.07-3.203 0-3.585-.009-4.849-.07-1.171-.054-1.805-.244-2.227-.408-.56-.217-.96-.477-1.382-.896-.419-.42-.679-.822-.896-1.381-.164-.422-.354-1.056-.408-2.227-.061-1.264-.07-1.646-.07-4.849 0-3.203.009-3.585.07-4.849.054-1.171.244-1.805.408-2.227.217-.56.477-.96.896-1.382.42-.419.822-.679 1.381-.896.422-.164 1.056-.354 2.227-.408 1.264-.061 1.646-.07 4.849-.07zM5.838 12a6.162 6.162 0 1112.324 0 6.162 6.162 0 01-12.324 0zM12 16a4 4 0 110-8 4 4 0 010 8zm4.965-10.322a1.44 1.44 0 1102.88 0 1.44 1.44 0 01-2.88 0z"/>
</svg>
