<svg xmlns="http://www.w3.org/2000/svg" viewBox="0 0 24 24" fill="black">
  <path d="M20.447 20.452h-3.554v-5.569c0-1.328-.475-2.236-1.986-2.236-1.081 0-1.722.732-2.004 1.438-.103.25-.129.599-.129.948v5.419h-3.554s.043-8.789 0-9.514h3.554v1.347c.429-.646 1.198-1.567 2.912-1.567 2.127 0 3.722 1.39 3.722 4.38v5.354zM5.337 8.855c-1.144 0-1.915-.758-1.915-1.71 0-.957.77-1.71 1.954-1.71 1.184 0 1.915.753 1.94 1.71 0 .952-.756 1.71-1.979 1.71zm1.6 11.597H3.734V9.938h3.203v10.514zM22.225 0H1.771C.792 0 0 .774 0 1.729v20.542C0 23.227.792 24 1.771 24h20.451C23.2 24 24 23.227 24 22.271V1.729C24 .774 23.2 0 22.225 0z"/>
</svg>
