<svg xmlns="http://www.w3.org/2000/svg" viewBox="0 0 24 24" fill="black">
  <path d="M23.953 4.57a10 10 0 002.856-9.51v-1a9.933 9.933 0 01-2.824.856 4.055 4.055 0 001.748-2.25 8.047 8.047 0 01-2.55.97 4.03 4.03 0 00-6.86 3.653 11.44 11.44 0 01-8.3-4.2 4.03 4.03 0 001.25 5.38 4.012 4.012 0 01-1.83-.505v.05a4.04 4.04 0 003.232 3.948 4.036 4.036 0 01-1.823.07 4.038 4.038 0 003.766 2.8A8.101 8.101 0 012 18.08a11.436 11.436 0 006.19 1.814c7.412 0 11.46-6.14 11.46-11.46 0-.174-.003-.348-.01-.52a8.18 8.18 0 002.007-2.085z"/>
</svg>
