<svg xmlns="http://www.w3.org/2000/svg" viewBox="0 0 24 24" fill="black">
  <path d="M17.6915026,13.4744748 C17.4744549,13.3368983 16.1701031,12.6841218 15.9529926,12.6015625 C15.7358821,12.5190031 15.5772495,12.4744549 15.4186169,12.6915026 C15.2599843,12.9085502 14.8607468,13.3776846 14.7194454,13.5363172 C14.5781439,13.6949498 14.4368425,13.7115345 14.2197948,13.5944868 C14.0027472,13.4744549 13.3190031,13.2389169 12.5048201,12.5190031 C11.8520248,11.9690217 11.4226954,11.2853776 11.2814252,11.0683299 C11.1400766,10.8512135 11.2665396,10.7299031 11.3843022,10.6132882 C11.4904096,10.5112702 11.6169353,10.3476754 11.7338144,10.2063394 C11.8507844,10.0650034 11.8955342,9.96498346 11.9803439,9.8063509 C12.0652842,9.64771833 12.020621,9.48907577 11.9358662,9.36926437 C11.8507844,9.24934466 11.4214547,8.14589273 11.225872,7.70913561 C11.0360752,7.2836345 10.8430076,7.34664347 10.6914883,7.33893985 C10.5474599,7.33171773 10.3888194,7.33171773 10.2301787,7.33171773 C10.0716484,7.33171773 9.80547776,7.41838046 9.58839005,7.63543316 C9.3712179,7.85248586 8.77417148,8.50517198 8.77417148,9.6086239 C8.77417148,10.7120758 9.60897768,11.7749903 9.72584689,11.9347525 C9.84248352,12.0958944 11.4226954,14.8659115 13.936837,15.9351632 C14.5230649,16.1908758 15.0072842,16.3662124 15.405015,16.4900095 C15.9906948,16.677046 16.5271892,16.6449815 16.9578534,16.5594968 C17.4330031,16.4650266 18.4037973,15.919564 18.5995382,15.7188869 C18.7952791,15.5182098 18.7952791,15.3649251 18.7077995,15.2469878 C18.6203198,15.1290505 18.4612433,15.0742636 18.2422223,14.9577326 C18.0243024,14.8409982 17.9084437,14.774883 17.6915026,13.4744748 Z M12.0016503,23.9999999 C6.47746707,23.9999999 2,19.5225559 2,13.9987724 C2,8.47498895 6.47746707,4 12.0016503,4 C17.5258836,4 22,8.47498895 22,13.9987724 C22,19.5225559 17.5258836,23.9999999 12.0016503,23.9999999 Z"/>
</svg>
